<svg width="760" height="220" viewBox="0 0 760 220" fill="none" xmlns="http://www.w3.org/2000/svg">
  <rect width="760" height="220" fill="#F7FAF4"/>
  <g transform="translate(158 47) scale(.9)">
    <path d="M18 79.6C21.4 59.3 36.7 43.5 58.2 38.6L65.6 21.8L79.8 38.2C89.2 40.6 97.8 46.1 105.2 54.1L122 49.4L108.8 66.4C110.7 70.5 112.1 74.8 113 79.4L99.4 79.9L91.9 96.8L68.6 101.6L50.3 92.9L34.9 99.2L31.2 88.2L18 79.6Z" fill="#183F78"/>
    <path d="M18 79.6C21.4 59.3 36.7 43.5 58.2 38.6L50.3 92.9L34.9 99.2L31.2 88.2L18 79.6Z" fill="#244C86"/>
    <path d="M79.8 38.2C91.4 42 99.4 48.8 105.2 54.1L92.2 58.3L79.8 38.2Z" fill="#2F5D9D"/>
    <circle cx="85" cy="62" r="3.4" fill="#F7FAF4"/>
  </g>
  <text x="286" y="126" font-family="Inter, Arial, sans-serif" font-size="58" font-weight="900" letter-spacing="-2" fill="#183F78">Rhino</text>
  <text x="454" y="126" font-family="Inter, Arial, sans-serif" font-size="58" font-weight="900" letter-spacing="-2" fill="#B9BABD">Connect</text>
</svg>
